<svg xmlns="http://www.w3.org/2000/svg" viewBox="0 0 225 225" width="225" height="225">
	<path fill="#0B6623" class="shp0" d="M109 16.75L109 26.5L92 26L92 33L109 33L109 53L116 53L116 33L134 33L133.5 26.5L116 26.5L116 7L109 7L109 16.75ZM53 41.5L53 56L27 56L27 65L53 65L53 94L63 94L63 65C88.64 65 89.02 64.94 89.6 62.75C89.92 61.51 89.92 59.49 89.6 58.25C89.02 56.06 88.64 56 76 56L63 56L63 27L53 27L53 41.5ZM162.05 41.45L162 56L136 56L136 65L162 65L162 94L172.5 93.5L173 65L199 65L199 56L172.5 56L172.5 27.5L162.11 26.9L162.05 41.45ZM106.5 74.67C106.04 75.03 105.74 82.23 105.83 90.67L106 106L77 106L77 118L106 118L106 150L119 150L119 118L148 118L148 106L119 106L119 74C109.96 74 106.96 74.3 106.5 74.67ZM191 98L191 108L174 108L174 116L191 116L191 136L201 136L201 116L218 116L218 108L201 108L201 88L191 88L191 98ZM24 99L24 109L7 109L7 116L24 115L24 135L31 135L31 115L49 115L49 109L31 109L31 89L24 89L24 99ZM53 143.5L53 158L27 158L27 167L53 167L53 196L63 196L63 167L90 167C90 162.35 89.78 160.32 89.5 159.5C89.09 158.27 86.67 158 76 158L63 158L63 129L53 129L53 143.5ZM162 143.5L162 158L136 158L136 167L162 167L162 196L172.5 195.5L172.5 167L199 167L198.5 158.5L172.5 157.95C172.97 139 172.86 132.49 172.55 131.25C172.07 129.29 171.35 129 167 129L162 129L162 143.5ZM108 179.75L108 189.5L91 189L91 198L108 198L108 218L117 218L117 198L135 198L134.5 189.5L117 189L117 170L108 170L108 179.75Z" />
</svg>
